<svg preserveAspectRatio="none" width="100%" height="100%" overflow="visible" style="display: block;" viewBox="0 0 16.8464 20" fill="none" xmlns="http://www.w3.org/2000/svg">
<path id="path4" d="M12.4707 5.3457H12.4736C13.7557 5.44919 14.724 5.87957 15.4287 6.61426C14.131 7.59974 13.4598 8.93173 13.4746 10.5742V10.5752C13.4899 12.0081 14.0172 13.2266 15.0479 14.1846V14.1855C15.3693 14.4907 15.7198 14.7479 16.0977 14.959C16.0469 15.0912 15.9957 15.2209 15.9424 15.3477C15.7271 15.8451 15.4833 16.3114 15.21 16.748L14.9268 17.1748C14.3667 17.9733 13.9383 18.4808 13.6396 18.7402L13.6328 18.7461L13.627 18.752C13.1651 19.1767 12.7108 19.3619 12.252 19.376C11.9033 19.3758 11.4353 19.2763 10.8369 19.0303L10.835 19.0293L10.5762 18.9287C9.9743 18.7096 9.39352 18.5938 8.83789 18.5938C8.18033 18.5938 7.49726 18.7441 6.79297 19.0283H6.79199C6.1671 19.2812 5.72019 19.3884 5.42383 19.3984H5.41895C5.02114 19.4154 4.56311 19.2476 4.03223 18.7539L4.02539 18.7471L4.01855 18.7412L3.88867 18.6211C3.57299 18.3152 3.16553 17.8208 2.66504 17.1133L2.66406 17.1123C2.08025 16.2908 1.59382 15.33 1.20996 14.2217H1.21094C0.801255 13.0283 0.599609 11.8856 0.599609 10.79C0.599628 9.53768 0.870315 8.49298 1.38477 7.63379L1.3877 7.62793C1.79344 6.93561 2.32759 6.39548 2.99707 5.99805C3.66389 5.60222 4.38071 5.4014 5.15918 5.3877C5.53503 5.38881 6.08725 5.50844 6.84766 5.79199V5.79297C7.24669 5.94275 7.5848 6.0596 7.85645 6.13965C8.10776 6.21369 8.36345 6.27536 8.56934 6.27539C8.68778 6.27539 8.81432 6.24821 8.9082 6.22559C9.01671 6.19943 9.14597 6.16279 9.29199 6.11719C9.58428 6.02591 9.97056 5.89071 10.4473 5.71582L10.4482 5.7168C11.3031 5.40917 11.9689 5.30318 12.4707 5.3457ZM12.0195 0.704102C11.9545 1.43279 11.6533 2.13182 11.084 2.80859C10.4414 3.55976 9.74378 3.99794 9.0332 4.10742C9.09561 3.37914 9.43723 2.59051 10.0322 1.91699L10.0352 1.91309C10.3471 1.55513 10.7513 1.24665 11.2607 0.995117C11.5283 0.864869 11.7814 0.769566 12.0195 0.704102Z" stroke="var(--stroke-0, #FAFAFA)" stroke-width="1.2"/>
</svg>
